# AST/ASF file generated using VICON BodyLanguage
# -----------------------------------------------
:version 1.10
:name VICON
:units
  mass 1.0
  length 0.45
  angle deg
:documentation
   .ast/.asf automatically generated from VICON data using
   VICON BodyBuilder and BodyLanguage model FoxedUp or BRILLIANT.MOD
:root
   order TX TY TZ RX RY RZ
   axis XYZ
   position 0 0 0  
   orientation 0 0 0 
:bonedata
  begin
     id 1 
     name lhipjoint
     direction 0.623415 -0.642378 0.445763 
     length 2.49859 
     axis 0 0 0  XYZ
  end
  begin
     id 2 
     name lfemur
     direction 0.34202 -0.939693 0  
     length 6.69689  
     axis 0 0 20  XYZ
    dof rx ry rz
    limits (-160.0 20.0)
           (-70.0 70.0)
           (-60.0 70.0)
  end
  begin
     id 3 
     name ltibia
     direction 0.34202 -0.939693 0   
     length 7.37574   
     axis 0 0 20   XYZ
    dof rx
    limits (-10.0 170.0)
  end
  begin
     id 4 
     name lfoot
     direction 0.084323 -0.231675 0.969132   
     length 2.09111   
     axis -90 7.62852e-016 20   XYZ
    dof rx rz
    limits (-45.0 90.0)
           (-70.0 20.0)
  end
  begin
     id 5 
     name ltoes
     direction 1.5357e-011 -4.21957e-011 1   
     length 1.04989   
     axis -90 7.62852e-016 20   XYZ
    dof rx
    limits (-90.0 20.0)
  end
  begin
     id 6 
     name rhipjoint
     direction -0.605402 -0.653903 0.45376   
     length 2.45455  
     axis 0 0 0  XYZ 
  end
  begin
     id 7 
     name rfemur
     direction -0.34202 -0.939693 0   
     length 6.64523   
     axis 0 0 -20   XYZ
    dof rx ry rz
    limits (-160.0 20.0)
           (-70.0 70.0)
           (-70.0 60.0)
  end
  begin
     id 8 
     name rtibia
     direction -0.34202 -0.939693 0   
     length 7.3339   
     axis 0 0 -20   XYZ
    dof rx
    limits (-10.0 170.0)
 end
 begin
     id 9 
     name rfoot
     direction -0.120854 -0.332043 0.93549   
     length 2.23135  
     axis -90 -7.62852e-016 -20   XYZ
    dof rx rz
    limits (-45.0 90.0)
           (-20.0 70.0)
  end
  begin
     id 10 
     name rtoes
     direction -1.53563e-011 -4.21914e-011 1   
     length 1.10614   
     axis -90 -7.62852e-016 -20   XYZ
    dof rx
    limits (-90.0 20.0)
  end
  begin
     id 11 
     name lowerback
     direction 0.0319682 0.998615 -0.0417941   
     length 2.02718   
     axis 0 0 0   XYZ
    dof rx ry rz
    limits (-20.0 45.0)
           (-30.0 30.0)
           (-30.0 30.0)
  end
  begin
     id 12 
     name upperback
     direction 7.63181e-005 0.995808 0.0914691   
     length 1.97539   
     axis 0 0 0   XYZ
    dof rx ry rz
    limits (-20.0 45.0)
           (-30.0 30.0)
           (-30.0 30.0)
  end
  begin
     id 13 
     name thorax
     direction -0.016423 0.993627 0.111514   
     length 2.00349   
     axis 0 0 0   XYZ
    dof rx ry rz
    limits (-20.0 45.0)
           (-30.0 30.0)
           (-30.0 30.0)
  end
  begin
     id 14 
     name lowerneck
     direction -0.174763 0.981668 -0.0760716   
     length 1.71436   
     axis 0 0 0   XYZ
    dof rx ry rz
    limits (-20.0 45.0)
           (-30.0 30.0)
           (-30.0 30.0)
  end
  begin
     id 15 
     name upperneck
     direction 0.345458 0.934587 -0.0848868   
     length 1.72805   
     axis 0 0 0   XYZ
    dof rx ry rz
    limits (-20.0 45.0)
           (-30.0 30.0)
           (-30.0 30.0)
  end
  begin
     id 16
     name head
     direction 0.13001 0.989848 -0.0574291  
     length 1.767  
     axis 0 0 0   XYZ
    dof rx ry rz
    limits (-20.0 45.0)
           (-30.0 30.0)
           (-30.0 30.0)
  end
  begin
     id 17 
     name lclavicle
     direction 0.952951 0.290122 0.0878234  
     length 3.54654  
     axis 0 0 0   XYZ
    dof ry rz
    limits (-20.0 10.0)
           (0.0 20.0)
  end
  begin
     id 18 
     name lhumerus
     direction 1 -4.48957e-011 -4.56525e-028   
     length 5.19807   
     axis 180 -30 -90   XYZ
    dof rx ry rz
    limits (-60.0 90.0)
           (-90.0 90.0)
           (-90.0 90.0)
  end
  begin
     id 19
     name lradius
     direction 1 -4.48979e-011 -2.0317e-027   
     length 3.0937   
     axis 180 -30 -90   XYZ
    dof rx
    limits (-10.0 170.0)
  end
  begin
     id 20
     name lwrist
     direction 1 -4.48953e-011 -3.05809e-027   
     length 1.54685   
     axis 8.48514e-016 90 90   XYZ
    dof ry
    limits (-180.0 0.0)
 end
  begin
     id 21 
     name lhand
     direction 1 -4.48952e-011 -6.11639e-027   
     length 0.672632   
     axis 3.9013e-015 90 90   XYZ
    dof rx rz
    limits (-90.0 90.0)
           (-45.0 45.0)
  end
  begin
     id 22 
     name lfingers
     direction 1 -4.48925e-011 -1.22426e-026   
     length 0.542293   
     axis 7.80276e-015 90 90   XYZ
    dof rx
    limits (0.0 90.0)
  end
  begin
     id 23
     name lthumb
     direction 0.707107 -6.3486e-011 0.707107   
     length 0.778628   
     axis -90 45 5.37419e-014   XYZ
    dof rx rz
    limits (-45.0 45.0)
           (-45.0 45.0)
  end
  begin
     id 24 
     name rclavicle
     direction -0.960732 0.273675 -0.0457849   
     length 3.52079  
     axis 0 0 0   XYZ 
    dof ry rz
    limits (-10.0 20.0)
           (-20.0 0.0)
  end
  begin
     id 25 
     name rhumerus
     direction -1 -4.48976e-011 -1.63613e-027  
     length 5.45222   
     axis 180 30 90   XYZ
    dof rx ry rz
    limits (-90.0 60.0)
           (-90.0 90.0)
           (-90.0 90.0)
  end
  begin
     id 26 
     name rradius
     direction -1 -4.48957e-011 -7.00033e-028   
     length 3.01284   
     axis 180 30 90   XYZ
    dof rx
    limits (-10.0 170.0)
  end
  begin
     id 27 
     name rwrist
     direction -1 -4.48983e-011 -3.05543e-027   
     length 1.50642   
     axis 8.48514e-016 -90 -90   XYZ
    dof ry
    limits (-180.0 0.0)
  end
  begin
     id 28
     name rhand
     direction -1 -4.48984e-011 -6.11072e-027   
     length 0.622296   
     axis 3.9013e-015 -90 -90   XYZ
    dof rx rz
    limits (-90.0 90.0)
           (-45.0 45.0)
  end
  begin
     id 29
     name rfingers
     direction -1 -4.48865e-011 -1.22637e-026   
     length 0.501711   
     axis 7.80276e-015 -90 -90   XYZ
    dof rx
    limits (0.0 90.0)
  end
  begin
     id 30
     name rthumb
     direction -0.707107 -6.34932e-011 0.707107   
     length 0.72036   
     axis -90 -45 -5.37419e-014   XYZ
    dof rx rz
    limits (-45.0 45.0)
           (-45.0 45.0)
  end
:hierarchy
  begin
    root lhipjoint rhipjoint lowerback
    lhipjoint lfemur
    lfemur ltibia
    ltibia lfoot
    lfoot ltoes
    rhipjoint rfemur
    rfemur rtibia
    rtibia rfoot
    rfoot rtoes
    lowerback upperback
    upperback thorax
    thorax lowerneck lclavicle rclavicle
    lowerneck upperneck
    upperneck head
    lclavicle lhumerus
    lhumerus lradius
    lradius lwrist
    lwrist lhand lthumb
    lhand lfingers
    rclavicle rhumerus
    rhumerus rradius
    rradius rwrist
    rwrist rhand rthumb
    rhand rfingers
  end

#!OML:ASF H:\Not Pregnant\Project 1\Capture day 1\Session 1\non-pregnant.ASF
:FULLY-SPECIFIED
:DEGREES
224
root 7.01308 15.7242 18.58 -168.6 -3.60427 -173.437
lowerback -0.094273 1.01405 5.20062
upperback -5.94114 1.19635 0.408327
thorax -6.02311 0.183892 -2.52822
lowerneck 19.8284 -8.44076 -31.5162
upperneck -0.585354 -23.2604 38.1676
head 5.45864 -14.6203 18.499
rclavicle 3.59676e-015 -7.15625e-015
rhumerus -39.4879 -8.09638 -82.0086
rradius 28.0314
rwrist 24.2877
rhand -2.56218 -1.91835
rfingers 7.12502
rthumb -156.866 149.451
lclavicle 3.59676e-015 -7.15625e-015
lhumerus -47.6608 -2.17579 82.906
lradius 58.3727
lwrist 46.3345
lhand -17.5 -13.8901
lfingers 7.12502
lthumb 8.75286 15.9084
rfemur -32.4894 4.55331 32.5129
rtibia 37.0662
rfoot -15.1778 10.4349
rtoes -7.74164
lfemur -33.8163 7.32988 -10.7018
ltibia 74.6499
lfoot 8.49477 -24.3843
ltoes -27.4002
225
root 7.0103 15.7331 18.5012 -168.785 -3.52741 -173.164
lowerback 0.22473 1.08111 5.49507
upperback -5.91346 1.327 0.511091
thorax -6.1653 0.235065 -2.59718
lowerneck 19.8013 -8.47923 -31.5002
upperneck -0.509212 -23.3188 38.1078
head 5.49543 -14.6388 18.4465
rclavicle 6.01479e-015 1.07344e-014
rhumerus -39.2712 -7.39713 -82.2754
rradius 28.3803
rwrist 24.046
rhand -2.26249 -1.80623
rfingers 7.12502
rthumb -156.578 149.599
lclavicle 6.01479e-015 1.07344e-014
lhumerus -47.7405 -2.24099 82.9872
lradius 58.6517
lwrist 46.1307
lhand -17.4495 -13.9171
lfingers 7.12502
lthumb 8.80157 15.8793
rfemur -31.7247 4.45456 32.869
rtibia 36.6214
rfoot -15.2506 10.6838
rtoes -7.32196
lfemur -35.6302 7.40828 -10.2807
ltibia 77.6431
lfoot 6.8451 -23.959
ltoes -29.5924
226
root 7.00809 15.7408 18.4236 -168.954 -3.40247 -172.951
lowerback 0.516462 1.15364 5.6987
upperback -5.8679 1.46211 0.600319
thorax -6.2728 0.294528 -2.63014
lowerneck 19.7984 -8.50027 -31.4888
upperneck -0.473857 -23.3562 38.0862
head 5.51564 -14.6532 18.4234
rclavicle 1.18339e-014 -1.07344e-014
rhumerus -38.9885 -6.74871 -82.5056
rradius 28.6834
rwrist 23.8908
rhand -2.05514 -1.65049
rfingers 7.12502
rthumb -156.379 149.78
lclavicle 1.18339e-014 -1.07344e-014
lhumerus -47.7819 -2.3155 83.0656
lradius 58.8426
lwrist 45.886
lhand -17.3764 -13.9585
lfingers 7.12502
lthumb 8.87211 15.835
rfemur -31.004 4.47656 33.1379
rtibia 36.2331
rfoot -15.3165 10.8339
rtoes -6.97744
lfemur -37.5027 7.51815 -9.95241
ltibia 80.722
lfoot 5.36329 -23.3262
ltoes -30.7053
227
root 7.00624 15.7479 18.3468 -169.108 -3.22974 -172.806
lowerback 0.779782 1.23296 5.8081
upperback -5.80816 1.60187 0.671624
thorax -6.34905 0.362468 -2.62975
lowerneck 19.8111 -8.50747 -31.4752
upperneck -0.464048 -23.3769 38.0925
head 5.52394 -14.6643 18.421
rclavicle 2.00338e-016 3.57812e-015
rhumerus -38.6572 -6.16372 -82.6948
rradius 28.9559
rwrist 23.8138
rhand -1.96855 -1.427
rfingers 7.12502
rthumb -156.296 150.015
lclavicle 2.00338e-016 3.57812e-015
lhumerus -47.8021 -2.40432 83.1399
lradius 58.9649
lwrist 45.6161
lhand -17.2973 -13.9944
lfingers 7.12502
lthumb 8.94842 15.7958
rfemur -30.322 4.60737 33.3161
rtibia 35.8969
rfoot -15.3779 10.8831
rtoes -6.7443
lfemur -39.4283 7.66946 -9.72115
ltibia 83.8679
lfoot 4.0511 -22.5428
ltoes -31.1376
228
root 7.00405 15.7555 18.2705 -169.254 -3.00856 -172.732
lowerback 1.03186 1.3166 5.82839
upperback -5.74856 1.74301 0.723285
thorax -6.41984 0.435614 -2.60087
lowerneck 19.8456 -8.49559 -31.4713
upperneck -0.447879 -23.3862 38.1067
head 5.52827 -14.674 18.432
rclavicle 8.05466e-015 -5.1684e-015
rhumerus -38.3156 -5.64821 -82.8381
rradius 29.212
rwrist 23.8168
rhand -1.98054 -1.20351
rfingers 7.12502
rthumb -156.308 150.237
lclavicle 8.05466e-015 -5.1684e-015
lhumerus -47.8307 -2.49686 83.2076
lradius 59.0203
lwrist 45.329
lhand -17.2015 -14.0418
lfingers 7.12502
lthumb 9.04087 15.7444
rfemur -29.6605 4.81709 33.4036
rtibia 35.5958
rfoot -15.4303 10.871
rtoes -6.63579
lfemur -41.3906 7.86797 -9.59098
ltibia 87.0536
lfoot 3.05384 -21.7156
ltoes -30.7439
229
root 7.00195 15.7645 18.1938 -169.395 -2.74971 -172.724
lowerback 1.24726 1.40602 5.76983
upperback -5.66304 1.88646 0.754329
thorax -6.44275 0.51663 -2.54956
lowerneck 19.8826 -8.47777 -31.4662
upperneck -0.456323 -23.3879 38.152
head 5.52784 -14.6838 18.4613
rclavicle -2.55446e-014 -1.07344e-014
rhumerus -37.9164 -5.22127 -82.9398
rradius 29.4419
rwrist 23.8681
rhand -2.1156 -0.984329
rfingers 7.12502
rthumb -156.437 150.439
lclavicle -2.55446e-014 -1.07344e-014
lhumerus -47.8118 -2.59492 83.2661
lradius 58.9863
lwrist 45.043
lhand -17.0898 -14.0916
lfingers 7.12502
lthumb 9.14867 15.69
rfemur -29.0034 5.08605 33.4134
rtibia 35.3065
rfoot -15.465 10.7782
rtoes -6.66997
lfemur -43.3779 8.1198 -9.5478
ltibia 90.2534
lfoot 2.26605 -20.9457
ltoes -29.7904
230
root 6.99907 15.7759 18.1169 -169.543 -2.45588 -172.774
lowerback 1.44745 1.49869 5.65499
upperback -5.56124 2.03058 0.764104
thorax -6.44058 0.60227 -2.48932
lowerneck 19.9114 -8.45865 -31.4589
upperneck -0.455253 -23.389 38.1984
head 5.53121 -14.6933 18.4905
rclavicle 1.7111e-014 9.93923e-015
rhumerus -37.4942 -4.88911 -82.9978
rradius 29.6688
rwrist 23.9625
rhand -2.37996 -0.770438
rfingers 7.12502
rthumb -156.691 150.621
lclavicle 1.7111e-014 9.93923e-015
lhumerus -47.783 -2.69926 83.3161
lradius 58.889
lwrist 44.7556
lhand -16.9511 -14.1515
lfingers 7.12502
lthumb 9.28255 15.6242
rfemur -28.3247 5.38227 33.3538
rtibia 35.0012
rfoot -15.4849 10.6755
rtoes -6.74562
lfemur -45.3665 8.42154 -9.58653
ltibia 93.4377
lfoot 1.55018 -20.2868
ltoes -28.6212
231
root 6.99537 15.7899 18.0403 -169.702 -2.15262 -172.86
lowerback 1.64228 1.58877 5.51914
upperback -5.44459 2.16959 0.756571
thorax -6.42053 0.687437 -2.43544
lowerneck 19.9223 -8.44683 -31.4499
upperneck -0.429674 -23.4042 38.2379
head 5.54896 -14.7082 18.5105
rclavicle -7.30534e-015 -1.07344e-014
rhumerus -37.0531 -4.65905 -83.0178
rradius 29.8977
rwrist 24.079
rhand -2.75008 -0.598747
rfingers 7.12502
rthumb -157.046 150.748
lclavicle -7.30534e-015 -1.07344e-014
lhumerus -47.7229 -2.80465 83.353
lradius 58.6974
lwrist 44.472
lhand -16.7711 -14.234
lfingers 7.12502
lthumb 9.45619 15.5338
rfemur -27.6134 5.6796 33.2546
rtibia 34.6605
rfoot -15.4818 10.5715
rtoes -6.83329
lfemur -47.3587 8.7553 -9.67535
ltibia 96.5903
lfoot 0.755843 -19.7596
ltoes -27.6892
232
root 6.9914 15.806 17.9626 -169.889 -1.85578 -172.958
lowerback 1.82232 1.67162 5.37784
upperback -5.29551 2.29802 0.742899
thorax -6.35886 0.770212 -2.38391
lowerneck 19.9186 -8.43989 -31.4389
upperneck -0.412618 -23.4201 38.2881
head 5.56912 -14.7228 18.5334
rclavicle 3.19608e-015 -6.36111e-015
rhumerus -36.5673 -4.50568 -83.0131
rradius 30.1215
rwrist 24.1641
rhand -3.18075 -0.5113
rfingers 7.12502
rthumb -157.46 150.784
lclavicle 3.19608e-015 -6.36111e-015
lhumerus -47.6214 -2.90523 83.3788
lradius 58.4266
lwrist 44.2258
lhand -16.5896 -14.3055
lfingers 7.12502
lthumb 9.63134 15.4544
rfemur -26.8443 5.96179 33.1461
rtibia 34.2742
rfoot -15.4581 10.4692
rtoes -6.9265
lfemur -49.3237 9.11474 -9.77831
ltibia 99.6919
lfoot -0.197077 -19.3737
ltoes -27.1889
233
root 6.9865 15.8234 17.885 -170.103 -1.57799 -173.053
lowerback 2.01324 1.74271 5.26046
upperback -5.1386 2.41199 0.725294
thorax -6.29611 0.84457 -2.34936
lowerneck 19.9124 -8.42786 -31.4287
upperneck -0.362621 -23.4369 38.3213
head 5.59622 -14.737 18.5485
rclavicle -1.21756e-014 -1.19271e-014
rhumerus -36.0913 -4.43233 -82.9844
rradius 30.3595
rwrist 24.2175
rhand -3.66935 -0.478159
rfingers 7.12502
rthumb -157.929 150.761
lclavicle -1.21756e-014 -1.19271e-014
lhumerus -47.5161 -3.00061 83.3913
lradius 58.0803
lwrist 44.0147
lhand -16.4013 -14.365
lfingers 7.12502
lthumb 9.81297 15.3863
rfemur -26.0256 6.20812 33.0473
rtibia 33.8476
rfoot -15.4165 10.3852
rtoes -7.03056
lfemur -51.2665 9.48591 -9.88057
ltibia 102.732
lfoot -1.39865 -19.0556
ltoes -27.5142
234
root 6.98098 15.8411 17.8071 -170.342 -1.32091 -173.138
lowerback 2.2043 1.8018 5.1687
upperback -4.96623 2.51066 0.707504
thorax -6.21783 0.910801 -2.32826
lowerneck 19.8976 -8.41239 -31.4252
upperneck -0.290048 -23.4559 38.3498
head 5.63225 -14.752 18.562
rclavicle -2.77056e-015 -4.37326e-015
rhumerus -35.6072 -4.41146 -82.9484
rradius 30.6083
rwrist 24.1969
rhand -4.20913 -0.537898
rfingers 7.12502
rthumb -158.447 150.641
lclavicle -2.77056e-015 -4.37326e-015
lhumerus -47.3878 -3.08424 83.3893
lradius 57.6525
lwrist 43.8446
lhand -16.2218 -14.3878
lfingers 7.12502
lthumb 9.9862 15.3553
rfemur -25.1676 6.41408 32.9672
rtibia 33.3949
rfoot -15.3686 10.3281
rtoes -7.13275
lfemur -53.1889 9.87341 -9.97638
ltibia 105.701
lfoot -2.64746 -18.8325
ltoes -28.0389
235
root 6.97496 15.8578 17.7294 -170.595 -1.08055 -173.214
lowerback 2.3906 1.85279 5.09927
upperback -4.78303 2.59847 0.686908
thorax -6.12562 0.970886 -2.32157
lowerneck 19.8858 -8.39501 -31.4187
upperneck -0.207971 -23.4742 38.3719
head 5.66853 -14.7665 18.5727
rclavicle -7.78987e-015 -1.27222e-014
rhumerus -35.1174 -4.43746 -82.9098
rradius 30.8691
rwrist 24.0921
rhand -4.79099 -0.65854
rfingers 7.12502
rthumb -159.006 150.458
lclavicle -7.78987e-015 -1.27222e-014
lhumerus -47.2328 -3.16072 83.3732
lradius 57.1447
lwrist 43.7152
lhand -16.0657 -14.3447
lfingers 7.12502
lthumb 10.1368 15.3911
rfemur -24.2989 6.58631 32.901
rtibia 32.9398
rfoot -15.3217 10.296
rtoes -7.23106
lfemur -55.1107 10.2851 -10.0778
ltibia 108.592
lfoot -3.97811 -18.6276
ltoes -28.8873
236
root 6.96799 15.8731 17.6527 -170.852 -0.843173 -173.281
lowerback 2.59737 1.89779 5.0503
upperback -4.61652 2.67914 0.665574
thorax -6.06294 1.02437 -2.32765
lowerneck 19.8727 -8.37082 -31.4214
upperneck -0.0727419 -23.4995 38.365
head 5.71875 -14.7834 18.5701
rclavicle -2.20651e-014 4.77083e-015
rhumerus -34.671 -4.49429 -82.8711
rradius 31.1542
rwrist 23.9085
rhand -5.40753 -0.827992
rfingers 7.12502
rthumb -159.598 150.224
lclavicle -2.20651e-014 4.77083e-015
lhumerus -47.0959 -3.23 83.3474
lradius 56.5691
lwrist 43.624
lhand -15.9326 -14.247
lfingers 7.12502
lthumb 10.2652 15.4825
rfemur -23.442 6.72437 32.8471
rtibia 32.5032
rfoot -15.2877 10.3093
rtoes -7.33985
lfemur -57.0516 10.7365 -10.1978
ltibia 111.396
lfoot -5.30065 -18.4186
ltoes -29.7946
237
root 6.96063 15.8864 17.5769 -171.102 -0.597374 -173.345
lowerback 2.80314 1.94464 5.01177
upperback -4.4531 2.76153 0.639144
thorax -6.00234 1.07752 -2.34513
lowerneck 19.8561 -8.34712 -31.4278
upperneck 0.0799333 -23.5316 38.3511
head 5.7766 -14.8032 18.5632
rclavicle -9.21864e-015 -7.95139e-016
rhumerus -34.2324 -4.58288 -82.8374
rradius 31.4554
rwrist 23.6449
rhand -6.04032 -1.06964
rfingers 7.12502
rthumb -160.206 149.918
lclavicle -9.21864e-015 -7.95139e-016
lhumerus -46.9335 -3.29676 83.3123
lradius 55.9
lwrist 43.5682
lhand -15.8145 -14.1171
lfingers 7.12502
lthumb 10.3791 15.6067
rfemur -22.6186 6.84413 32.7973
rtibia 32.1022
rfoot -15.2635 10.354
rtoes -7.42966
lfemur -59.0294 11.2453 -10.3508
ltibia 114.107
lfoot -6.57101 -18.1983
ltoes -30.5902
